<svg width="173" height="56" viewBox="0 0 173 56" fill="none" xmlns="http://www.w3.org/2000/svg">
<g opacity="0.8">
<path d="M31.9844 1.44513C33.9113 -0.481711 37.036 -0.481711 38.9629 1.44513L62.0285 24.5108C63.9554 26.4376 63.9554 29.5624 62.0285 31.4892L38.9629 54.5549C37.036 56.4817 33.9113 56.4817 31.9844 54.5549L8.91877 31.4892C6.99192 29.5624 6.99192 26.4376 8.91877 24.5108L31.9844 1.44513ZM14.1568 25.4827C12.6086 27.0309 12.6086 29.5341 14.1568 31.0824L32.6738 49.5993C34.222 51.1476 36.7252 51.1476 38.2735 49.5993L56.7904 31.0824C58.3387 29.5341 58.3387 27.0253 56.7904 25.4827L38.2735 6.96574C36.7252 5.41749 34.222 5.41749 32.6738 6.96574L14.1568 25.4827Z" fill="url(#paint0_linear)" fill-opacity="0.7"/>
<path fill-rule="evenodd" clip-rule="evenodd" d="M57.3046 23.6237C57.3103 23.6407 57.3103 23.6633 57.3159 23.6859C57.4798 24.6691 56.813 25.6014 55.8242 25.7596C54.841 25.9235 53.9143 25.2567 53.7504 24.2679C53.5865 23.2847 54.2533 22.3523 55.2365 22.1941C56.0389 22.0641 56.8017 22.4766 57.1464 23.166L62.2319 21.9398C62.2093 21.8777 62.1924 21.8099 62.1811 21.7421C62.085 21.1714 62.4579 20.6289 63.0173 20.5102L62.667 18.0579C61.6273 17.8488 60.7741 17.0351 60.548 15.9446L57.1577 16.4418C57.1916 16.8148 56.9317 17.1594 56.5587 17.2216C56.1914 17.2838 55.8468 17.0577 55.7507 16.7074L54.1403 17.0408C54.1516 17.5719 53.773 18.0409 53.2362 18.1313C52.9367 18.1822 52.6429 18.1031 52.4169 17.9336L46.2634 21.7703C46.3199 21.8777 46.3651 21.9963 46.3877 22.1207C46.4838 22.7083 46.0882 23.2677 45.4949 23.3694C44.9016 23.4655 44.3479 23.0643 44.2461 22.4766C44.2461 22.471 44.2461 22.4653 44.2461 22.4653L33.9225 22.601C33.4592 23.4485 32.6229 24.0814 31.5945 24.2509C29.8259 24.5391 28.159 23.3468 27.8595 21.5838L23.3673 22.4766C23.3051 23.1095 23.0734 23.7085 22.7175 24.2114L29.4925 27.7373C30.0915 27.2401 30.8204 26.8954 31.6397 26.7598C34.1034 26.3529 36.4257 28.0198 36.8269 30.4835C36.8495 30.6078 36.8608 30.7321 36.8721 30.8508L42.6922 31.721C42.8335 31.3932 43.133 31.1333 43.5172 31.0712C43.8393 31.0203 44.1501 31.1164 44.3874 31.3085L47.2183 28.9465C47.111 28.8448 47.0375 28.7036 47.0093 28.5454C46.9471 28.1498 47.207 27.7825 47.6026 27.7147C47.9981 27.6526 48.3711 27.9181 48.4332 28.308C48.4954 28.7036 48.2298 29.0709 47.8343 29.1387C47.6534 29.1669 47.4726 29.1274 47.3257 29.0313L44.6417 31.6193C44.6982 31.721 44.7377 31.834 44.7547 31.9583C44.8507 32.546 44.4496 33.1054 43.8619 33.2014C43.2742 33.2975 42.7092 32.8963 42.6131 32.3086C42.5962 32.2069 42.5962 32.0996 42.6075 31.9979L36.8213 31.947C36.5105 33.8004 35.0527 35.3317 33.0976 35.6538C32.832 35.699 32.5664 35.7159 32.3065 35.7159L32.233 39.0611C33.058 39.1063 33.77 39.7222 33.9056 40.5698C34.0695 41.553 33.4027 42.4853 32.4138 42.6435C31.8544 42.7339 31.312 42.5588 30.9221 42.2084L24.9777 45.6835C25.0398 45.7909 25.085 45.9152 25.102 46.0395C25.1981 46.6272 24.7969 47.1866 24.2092 47.2827C23.6215 47.3787 23.0621 46.9832 22.9661 46.3899C22.9435 46.2599 22.9491 46.1299 22.9717 46.0113L19.9826 44.7455C19.8187 44.9603 19.5814 45.1185 19.2876 45.1693C18.6999 45.2654 18.1405 44.8642 18.0444 44.2765C17.9484 43.6832 18.3496 43.1295 18.9372 43.0334C19.5305 42.9374 20.0843 43.3386 20.1804 43.9262C20.2086 44.0901 20.1973 44.2483 20.1521 44.3952L23.0169 45.8361C23.1469 45.4858 23.4577 45.2089 23.8589 45.1467C24.2657 45.0789 24.6556 45.2484 24.8929 45.5536L30.5718 41.7903C30.4587 41.5982 30.3796 41.3891 30.3401 41.1574C30.1762 40.1742 30.843 39.2419 31.8262 39.0837L31.2498 35.5747C30.1932 35.3034 29.2665 34.6593 28.6449 33.7608L20.056 38.9989C20.0956 39.0667 20.1238 39.1458 20.1351 39.2306C20.203 39.6205 19.9317 39.9934 19.5418 40.0612C19.1463 40.129 18.779 39.8578 18.7112 39.4623C18.6434 39.0667 18.9146 38.6994 19.3045 38.6316C19.5644 38.5864 19.8131 38.6881 19.9713 38.8746L28.1872 32.9245C28.0572 32.6081 27.9612 32.2747 27.899 31.9244C27.7747 31.1503 27.8482 30.3931 28.0912 29.7037L21.9772 24.9459C21.5139 25.3076 20.9601 25.5618 20.3386 25.6636C20.1125 25.6975 19.8922 25.7144 19.6718 25.7088L19.4006 29.715C20.5363 29.8789 21.4856 30.766 21.6778 31.9526C21.9207 33.4331 20.9206 34.8231 19.4458 35.0661C17.971 35.3091 16.5753 34.3089 16.3323 32.8341C16.3041 32.6477 16.2928 32.4612 16.2984 32.2804L14.0325 31.834H14.0099C13.9308 32.0883 13.7161 32.286 13.4336 32.3369C13.038 32.399 12.6707 32.1335 12.6029 31.7436C12.5408 31.348 12.8064 30.9751 13.1962 30.9129C13.5918 30.8508 13.9647 31.1164 14.0269 31.5063C14.0325 31.5571 14.0382 31.6023 14.0382 31.6532H14.0551L16.3436 31.8566C16.5583 30.7886 17.4172 29.9071 18.5586 29.7207C18.7338 29.6924 18.909 29.6811 19.0841 29.6868L18.9542 25.624C17.9879 25.4093 17.1516 24.799 16.6431 23.9458L10.9473 26.6072C10.9699 26.675 10.9925 26.7428 11.0038 26.8163C11.0999 27.4039 10.6987 27.9633 10.111 28.0594C9.61378 28.1442 9.13913 27.8729 8.94136 27.4322L3.60722 28.5906C3.68068 29.5173 3.03086 30.3592 2.09852 30.5174C1.11532 30.6813 0.182973 30.0145 0.0247572 29.0257C-0.139109 28.0425 0.527658 27.1101 1.51651 26.9519C2.35844 26.8106 3.16083 27.2796 3.47726 28.0368L8.92441 27.3192C8.91311 27.274 8.90181 27.2344 8.89616 27.1892C8.8001 26.5959 9.20129 26.0365 9.78895 25.9404C10.2127 25.8726 10.6196 26.0591 10.8513 26.3868L16.2984 23.0982C16.2645 22.9682 16.2362 22.8383 16.2136 22.7027C15.9537 21.1431 16.7335 19.657 18.0501 18.9394L17.4172 15.097C17.0047 15.1252 16.6261 14.9162 16.4227 14.5771L9.62508 18.476C9.65898 18.5438 9.68724 18.6116 9.69854 18.6908C9.76634 19.0863 9.49512 19.4592 9.09958 19.5214C8.70969 19.5835 8.33675 19.318 8.26894 18.9281C8.20114 18.5325 8.47236 18.1596 8.86225 18.0974C9.16173 18.0522 9.44426 18.1879 9.59118 18.4252L16.338 14.4189C16.3041 14.3398 16.2871 14.2777 16.2758 14.1929C16.1797 13.6165 16.564 13.0628 17.1347 12.9554L16.9821 11.8366C15.9707 11.5767 15.157 10.746 14.9818 9.64984C14.7388 8.17504 15.739 6.77934 17.2138 6.53637C18.6886 6.2934 20.0843 7.29355 20.3273 8.76835C20.3442 8.86441 20.3499 8.95482 20.3555 9.05088L25.119 9.14694C25.1642 8.84745 25.4015 8.59883 25.7179 8.54232C26.1135 8.48017 26.4807 8.74574 26.5485 9.14128C26.6107 9.53682 26.3451 9.90411 25.9552 9.97192C25.5597 10.0341 25.1924 9.7685 25.1246 9.37861C25.119 9.3334 25.1133 9.2882 25.1133 9.24865L20.3555 9.42946C20.2595 10.6443 19.3497 11.684 18.0953 11.8875C17.8128 11.9327 17.5359 11.9383 17.2703 11.8988V12.9441C17.8241 12.9046 18.327 13.2945 18.4174 13.8482C18.5078 14.402 18.1631 14.9218 17.6376 15.0687L18.796 18.6399C18.9259 18.606 19.0559 18.5777 19.1859 18.5551C21.0392 18.25 22.7909 19.414 23.2599 21.194L27.8199 20.7871C27.9386 19.3293 29.0291 18.0861 30.5322 17.8375C30.6339 17.8206 30.7356 17.8093 30.843 17.798L31.877 14.1646C31.5324 14.029 31.2611 13.7239 31.199 13.3284C31.1029 12.7407 31.5041 12.1813 32.0918 12.0852C32.6794 11.9892 33.2388 12.3904 33.3349 12.978C33.4309 13.5657 33.0298 14.1251 32.4421 14.2211C32.3573 14.2381 32.2669 14.2381 32.1822 14.2325L31.9957 17.9223C32.8546 18.1766 33.5779 18.7868 33.9734 19.6005L37.505 18.5438C37.4542 18.4252 37.4202 18.2952 37.3976 18.1653C37.2338 17.1821 37.9005 16.2554 38.8894 16.0915C39.8726 15.9276 40.7993 16.5944 40.9632 17.5776C41.127 18.5608 40.4603 19.4931 39.4771 19.6514C38.7199 19.7757 37.9966 19.4084 37.6293 18.7868L34.2503 20.3972C34.2559 20.4368 34.2672 20.4763 34.2729 20.5159C34.3294 20.8436 34.3294 21.1657 34.2898 21.4765L44.2348 22.1602C44.297 21.6969 44.653 21.3126 45.1333 21.2335C45.5401 21.1657 45.93 21.3352 46.1673 21.6404L52.0722 17.5267C52.0326 17.4363 51.9987 17.3403 51.9874 17.2442C51.8914 16.6565 52.2926 16.0971 52.8802 16.0011C53.4283 15.9107 53.9482 16.2497 54.0951 16.7696L55.7225 16.5774C55.6885 16.2045 55.9485 15.8655 56.3271 15.8033C56.6717 15.7468 56.9938 15.9446 57.1181 16.2554L60.4972 15.4134C60.4915 14.1081 61.4352 12.9498 62.7687 12.7294C64.2435 12.4864 65.6392 13.4866 65.8822 14.9614C66.1252 16.4362 65.125 17.8319 63.6502 18.0748C63.5428 18.0918 63.4298 18.1031 63.3225 18.1087L63.2603 20.4876C63.7802 20.4876 64.2379 20.8662 64.3226 21.3974C64.4187 21.985 64.0175 22.5444 63.4298 22.6405C62.9665 22.7196 62.5257 22.4879 62.3054 22.0981L57.3046 23.6237ZM63.1473 20.9171C62.7913 20.9736 62.554 21.3126 62.6105 21.663C62.667 22.0189 63.0004 22.2563 63.3564 22.1998C63.7124 22.1433 63.9497 21.8099 63.8932 21.4539C63.8367 21.0979 63.5033 20.8606 63.1473 20.9171ZM1.63517 27.6639C1.04186 27.7599 0.64632 28.3193 0.74238 28.9126C0.83844 29.5003 1.39785 29.9015 1.99116 29.8054C2.57882 29.7094 2.98001 29.15 2.88395 28.5623C2.78224 27.969 2.22283 27.5678 1.63517 27.6639ZM31.9618 39.8069C31.3741 39.903 30.9729 40.4624 31.069 41.0501C31.1651 41.6434 31.7245 42.0389 32.3121 41.9429C32.9054 41.8468 33.301 41.2874 33.2049 40.6997C33.1089 40.1121 32.5495 39.7109 31.9618 39.8069ZM55.3552 22.9061C54.7675 23.0021 54.3663 23.5615 54.4624 24.1492C54.5584 24.7369 55.1178 25.1381 55.7055 25.042C56.2988 24.9459 56.6944 24.3865 56.5983 23.7932C56.5022 23.2056 55.9485 22.81 55.3552 22.9061ZM39.0194 16.8035C38.4317 16.8995 38.0305 17.4589 38.1266 18.0522C38.2226 18.6399 38.782 19.0411 39.3697 18.945C39.963 18.849 40.3585 18.2896 40.2625 17.6963C40.1664 17.1086 39.6127 16.7074 39.0194 16.8035ZM23.9436 45.5931C23.5876 45.6496 23.3503 45.983 23.4068 46.339C23.4633 46.695 23.7967 46.9323 24.1527 46.8758C24.5087 46.8137 24.746 46.4859 24.6895 46.1299C24.633 45.7739 24.294 45.5366 23.9436 45.5931ZM32.1709 12.5147C31.8149 12.5712 31.5776 12.9046 31.6341 13.2606C31.6906 13.6165 32.0296 13.8539 32.3799 13.7974C32.7359 13.7409 32.9732 13.4075 32.9167 13.0515C32.8602 12.6955 32.5269 12.4525 32.1709 12.5147ZM9.8624 26.3699C9.50642 26.4264 9.26909 26.7654 9.3256 27.1158C9.3821 27.4717 9.72114 27.7091 10.0715 27.6526C10.4275 27.5961 10.6648 27.2627 10.6083 26.9067C10.5461 26.5507 10.2127 26.3134 9.8624 26.3699ZM52.948 16.4192C52.592 16.4757 52.3547 16.8091 52.4112 17.1651C52.4677 17.5211 52.8011 17.7584 53.1571 17.7019C53.5131 17.6454 53.7504 17.312 53.6939 16.956C53.6374 16.6 53.304 16.3571 52.948 16.4192ZM43.5907 31.5006C43.2347 31.5571 42.9974 31.8905 43.0539 32.2465C43.1104 32.6025 43.4494 32.8398 43.7997 32.7833C44.1557 32.7268 44.3931 32.3877 44.3365 32.0374C44.28 31.6814 43.9467 31.4441 43.5907 31.5006ZM19.0163 43.4742C18.6603 43.5307 18.423 43.8641 18.4795 44.22C18.536 44.576 18.8751 44.8134 19.2254 44.7568C19.5814 44.7003 19.8187 44.3613 19.7622 44.011C19.7057 43.655 19.3723 43.4177 19.0163 43.4742ZM17.2421 13.3792C16.8861 13.4357 16.6487 13.7691 16.7052 14.1251C16.7618 14.4811 17.1008 14.7184 17.4511 14.6619C17.8071 14.6054 18.0444 14.272 17.9879 13.916C17.9314 13.56 17.598 13.3227 17.2421 13.3792ZM45.2067 21.6573C44.8507 21.7138 44.6134 22.0528 44.6699 22.4032C44.7264 22.7592 45.0655 22.9965 45.4158 22.94C45.7718 22.8835 46.0091 22.5501 45.9526 22.1941C45.8961 21.8381 45.5627 21.6008 45.2067 21.6573ZM17.3946 7.60998C16.5075 7.75689 15.9085 8.59318 16.0554 9.47467C16.2023 10.3618 17.0386 10.9608 17.9258 10.8139C18.8129 10.6669 19.4119 9.83065 19.265 8.94916C19.1124 8.06202 18.2761 7.46306 17.3946 7.60998ZM18.7677 30.8112C17.8806 30.9581 17.2816 31.7888 17.4285 32.6759C17.5754 33.5631 18.4117 34.162 19.2932 34.0151C20.1804 33.8682 20.7793 33.0319 20.6324 32.1448C20.4855 31.2689 19.6492 30.67 18.7677 30.8112ZM62.9439 13.7861C62.0567 13.933 61.4578 14.7693 61.6047 15.6507C61.7516 16.5379 62.5822 17.1368 63.4694 16.9899C64.3565 16.843 64.9555 16.0067 64.8086 15.1252C64.6617 14.2438 63.8254 13.6391 62.9439 13.7861ZM19.4288 19.9791C18.2479 20.1712 17.4511 21.29 17.6432 22.471C17.8354 23.652 18.9485 24.4487 20.1351 24.2566C21.3161 24.0644 22.1185 22.9456 21.9207 21.7703C21.723 20.5837 20.6098 19.787 19.4288 19.9791ZM30.7526 19.1145C29.6903 19.2897 28.9726 20.2899 29.1422 21.3578C29.3173 22.4201 30.3175 23.1378 31.3854 22.9626C32.4477 22.7874 33.1654 21.7873 32.9902 20.725C32.8207 19.657 31.8205 18.9394 30.7526 19.1145ZM31.9392 28.5397C30.4644 28.7827 29.4642 30.1784 29.7072 31.6532C29.9502 33.128 31.3459 34.1281 32.8207 33.8851C34.2955 33.6422 35.2956 32.2465 35.0527 30.7717C34.8097 29.2969 33.414 28.2967 31.9392 28.5397Z" fill="white"/>
<path d="M74.8098 15.3398V21.1825L83.879 15.3398H89.9872L79.5902 21.725L90.7444 28.9464H84.6361L74.8154 22.29V28.9464H71.103V15.3398H74.8098Z" fill="white"/>
<path d="M109.561 15.3398C110.499 15.3398 111.364 15.5489 112.143 15.9671C112.94 16.3852 113.562 16.9559 114.019 17.6735C114.477 18.3912 114.703 19.1709 114.703 20.0298C114.703 20.8774 114.471 21.6628 114.008 22.3861C113.556 23.1037 112.935 23.6688 112.143 24.0869C111.364 24.4994 110.499 24.7028 109.561 24.7028H99.8478V28.9521H96.1354V15.3398H109.561ZM99.8478 21.6854H109.216C109.753 21.6628 110.194 21.5103 110.539 21.2164C110.895 20.9 111.07 20.4988 111.053 20.0242C111.053 19.5269 110.878 19.1314 110.527 18.8319C110.188 18.5155 109.753 18.3573 109.216 18.3629H99.8478V21.6854Z" fill="white"/>
<path d="M123.812 15.3398V19.8886H133.683C134.599 19.8886 135.435 20.092 136.198 20.4932C136.972 20.8944 137.577 21.4481 138.006 22.1431C138.452 22.8382 138.673 23.5953 138.673 24.4203C138.673 25.2396 138.452 25.9968 138.006 26.6975C137.571 27.3925 136.961 27.9406 136.187 28.3475C135.429 28.7487 134.599 28.9521 133.683 28.9521H120.094V15.3398H123.812ZM123.812 25.9234V25.946H133.327C133.819 25.946 134.22 25.8047 134.537 25.5165C134.853 25.234 135.011 24.8667 135.006 24.4147C135.006 23.957 134.847 23.5897 134.531 23.3128C134.231 23.0303 133.83 22.8834 133.327 22.8834H123.812V25.9234ZM145.68 15.3398V28.9464H141.967V15.3398H145.68Z" fill="white"/>
<path d="M172.763 15.3398V28.9464H169.05V20.3236L163.507 27.7259H160.32L154.788 20.3236V28.9464H151.076V15.3398H154.93L161.925 24.878L168.92 15.3398H172.763Z" fill="white"/>
<path d="M79.6979 33.1279V34.7327H76.3641V39.7278H74.4203V34.7327H71.0864V33.1279H79.6979Z" fill="white"/>
<path d="M88.9592 33.1279V34.7327H82.7718V35.6085H88.1342V37.185H82.7718V38.1174H88.9592V39.7221H80.828V33.1279H88.9592Z" fill="white"/>
<path d="M93.4458 33.1287L96.0676 35.2646L98.7008 33.1287H101.701L97.5876 36.293L102.057 39.7229H99.0568L96.0676 37.3158L93.0898 39.7229H90.095L94.5589 36.293L90.4453 33.123H93.4458V33.1287Z" fill="white"/>
<path d="M105.131 33.1279V35.5351H110.132V33.1279H112.076V39.7278H110.132V37.1398H105.131V39.7278H103.187V33.1279H105.131Z" fill="white"/>
<path d="M120.388 33.1279C120.987 33.1279 121.495 33.32 121.919 33.7043C122.348 34.0885 122.558 34.5519 122.546 35.0943V37.7727C122.546 38.3152 122.337 38.7785 121.913 39.1627C121.495 39.5413 120.987 39.7334 120.388 39.7334H115.359C114.765 39.7334 114.251 39.5413 113.827 39.1571C113.409 38.7728 113.2 38.3152 113.2 37.7727V35.0943C113.2 34.5519 113.409 34.0829 113.833 33.7043C114.257 33.32 114.765 33.1279 115.364 33.1279H120.388ZM115.359 34.9248C115.217 35.0491 115.144 35.2073 115.15 35.3938V37.4563C115.15 37.6371 115.223 37.7953 115.364 37.9253C115.506 38.0439 115.681 38.1061 115.879 38.1174H119.874C120.077 38.1061 120.246 38.0439 120.393 37.9253C120.535 37.7953 120.608 37.6371 120.602 37.4563V35.3938C120.602 35.2073 120.529 35.0491 120.388 34.9248C120.246 34.7948 120.077 34.727 119.874 34.7327H115.879C115.675 34.727 115.5 34.7948 115.359 34.9248Z" fill="white"/>
<path d="M132.593 33.1279V39.7278H130.666V34.7327H126.705V37.7614C126.705 38.3039 126.496 38.7729 126.072 39.1571C125.654 39.5357 125.151 39.7278 124.552 39.7278H123.693V38.123H124.038C124.247 38.1117 124.422 38.0439 124.569 37.9253C124.71 37.7953 124.778 37.6371 124.778 37.4619V33.1279H132.593Z" fill="white"/>
<path d="M140.91 33.1279C141.509 33.1279 142.018 33.32 142.442 33.7043C142.871 34.0885 143.08 34.5519 143.069 35.0943V37.7727C143.069 38.3152 142.86 38.7785 142.436 39.1627C142.018 39.5413 141.509 39.7334 140.91 39.7334H135.881C135.288 39.7334 134.774 39.5413 134.35 39.1571C133.932 38.7728 133.723 38.3152 133.723 37.7727V35.0943C133.723 34.5519 133.932 34.0829 134.356 33.7043C134.78 33.32 135.288 33.1279 135.887 33.1279H140.91ZM135.881 34.9248C135.74 35.0491 135.667 35.2073 135.672 35.3938V37.4563C135.672 37.6371 135.746 37.7953 135.887 37.9253C136.028 38.0439 136.204 38.1061 136.401 38.1174H140.396C140.6 38.1061 140.769 38.0439 140.916 37.9253C141.057 37.7953 141.131 37.6371 141.125 37.4563V35.3938C141.125 35.2073 141.052 35.0491 140.91 34.9248C140.769 34.7948 140.6 34.727 140.396 34.7327H136.401C136.198 34.727 136.023 34.7948 135.881 34.9248Z" fill="white"/>
<path d="M144.216 39.7278V33.1279H152.025V34.7327H146.166V39.7278H144.216Z" fill="white"/>
<path d="M153.15 39.7278V33.1279H155.099V37.5241L160.518 33.1279H162.417V39.7278H160.467V35.3317L155.037 39.7278H153.15Z" fill="white"/>
<path d="M163.547 39.7278V33.1279H165.496V37.5241L170.915 33.1279H172.814V39.7278H170.864V35.3317L165.434 39.7278H163.547Z" fill="white"/>
</g>
<defs>
<linearGradient id="paint0_linear" x1="15.548" y1="8.0745" x2="55.1462" y2="47.6727" gradientUnits="userSpaceOnUse">
<stop stop-color="white"/>
<stop offset="1" stop-color="white" stop-opacity="0"/>
</linearGradient>
</defs>
</svg>
