<svg width="16" height="14" viewBox="0 0 16 14" fill="none" xmlns="http://www.w3.org/2000/svg">
<path fill-rule="evenodd" clip-rule="evenodd" d="M0.734545 1.03273L1.76 0L14.6545 12.9091L13.6291 13.9345L11.1345 11.44C10.16 11.8182 9.10545 12.0364 8 12.0364C4.36364 12.0364 1.25818 9.77455 0 6.58182C0.56 5.14909 1.49818 3.91273 2.68364 2.98182L0.734545 1.03273ZM11.6364 6.58181C11.6364 4.57454 10.0074 2.94545 8.00008 2.94545C7.62917 2.94545 7.27281 3.01817 6.93099 3.11999L5.35281 1.54181C6.18917 1.27272 7.07644 1.12726 8.00008 1.12726C11.6364 1.12726 14.7419 3.38908 16.0001 6.57454C15.4983 7.85454 14.6983 8.97454 13.6874 9.86908L11.4619 7.64363C11.5637 7.30908 11.6364 6.95272 11.6364 6.58181ZM8 10.2182C5.99273 10.2182 4.36364 8.58907 4.36364 6.5818C4.36364 6.0218 4.49455 5.49089 4.72 5.02543L5.86182 6.16725C5.84 6.29816 5.81818 6.43634 5.81818 6.5818C5.81818 7.78907 6.79273 8.76362 8 8.76362C8.14545 8.76362 8.27636 8.7418 8.41455 8.71271L9.55636 9.85453C9.08364 10.0873 8.56 10.2182 8 10.2182ZM10.1601 6.34183C10.051 5.32365 9.25097 4.53092 8.24006 4.42183L10.1601 6.34183Z" fill="black"/>
</svg>
